<svg viewBox="0 0 984.63 798.57" xmlns="http://www.w3.org/2000/svg"><path d="m928 161.77s-63.64-172.6-219.06-161.23c0 0-82.29-7.45-168.52 117.28 0 0-52.72 71.49-75.19 94.11s-27.72 35.14-80.47 24.88c0 0-87-16-169.2-62.2 0 0-113.94-51.45-172.85 41.92 0 0-52.76 61.92-41 173.55 0 0-22.13 243.62 219.74 362.59l533.55-66.45s134.71-80.55 183-272.39c0 0 31.09-84.93 3.14-217.16 0 0 44.84 62.91 34.7 177.7s-101.5 255.22-185.99 306.63l3 7.76s116.29-66 181.68-265.79c-.04-.03 42.47-151.29-46.53-261.2zm-499.17 95.51-53.14 49.2c-71.69-37.68-256.79-28.19-256.79-28.19-94.38 7.2-111.26 95.08-111.26 95.08-3.56-73.55 21-118.32 21-118.32 62-140.47 188.25-70.45 188.25-70.45 147.48 77.93 218.61 63.68 218.61 63.68z" fill="#c7dbf2"/><path d="m488.3 185.74-266.91 232.12 573 5.08-273.82-237.23a24.77 24.77 0 0 0 -32.27.03z" fill="#212146"/><rect fill="#fff" height="364.21" rx="20.1" width="480.67" x="265.79" y="271.08"/><rect fill="#c7dbf2" height="116.46" rx="8.07" width="116.46" x="302.33" y="306.48"/><path d="m359.22 408.26c-11.85 0-23.71-.15-35.55.06-5.16.1-7.26-1.71-7.22-7.05.17-24.38.2-48.77 0-73.14-.06-5.92 2.33-7.53 7.85-7.48q36.06.28 72.13 0c5.61 0 7.8 1.77 7.75 7.58-.22 24-.27 48.08 0 72.12.08 6.39-2.38 8.18-8.37 8-12.2-.35-24.4-.08-36.59-.09zm-5.08-31.26c-2.41-4.36-4.13-7.21-5.61-10.19-2.25-4.55-5.61-7.19-10.55-4.74-5.27 2.61-4.08 7.22-2.08 11.4 3.06 6.41 6.29 12.74 9.63 19 4.88 9.15 10.78 9.27 16.12.13 9.23-15.76 18.23-31.66 27.28-47.52 2.68-4.68 6.73-10.13.09-14.07-7.35-4.37-10 2.49-12.79 7.37-7.23 12.45-14.3 24.98-22.09 38.62z" fill="#fefefe"/><path d="m354.14 377c7.79-13.63 14.87-26.16 22.09-38.61 2.83-4.88 5.44-11.74 12.79-7.37 6.64 3.94 2.59 9.39-.09 14.07-9.05 15.86-18.05 31.76-27.28 47.52-5.34 9.14-11.24 9-16.12-.13-3.34-6.27-6.57-12.6-9.63-19-2-4.18-3.19-8.79 2.08-11.4 4.94-2.45 8.3.19 10.55 4.74 1.47 2.96 3.2 5.81 5.61 10.18z" fill="#29457e"/><rect fill="#c7dbf2" height="116.46" rx="8.07" width="116.46" x="302.33" y="437.78"/><path d="m359.22 539.56c-11.85 0-23.71-.15-35.55.06-5.16.1-7.26-1.71-7.22-7 .17-24.38.2-48.77 0-73.14-.06-5.91 2.33-7.53 7.85-7.48q36.06.29 72.13 0c5.61-.05 7.8 1.77 7.75 7.58-.22 24-.27 48.08 0 72.12.08 6.39-2.38 8.18-8.37 8-12.2-.36-24.4-.13-36.59-.14zm-5.08-31.27c-2.41-4.36-4.13-7.21-5.61-10.19-2.25-4.55-5.61-7.19-10.55-4.74-5.27 2.61-4.08 7.22-2.08 11.4 3.06 6.41 6.29 12.74 9.63 19 4.88 9.15 10.78 9.27 16.12.13 9.23-15.76 18.23-31.66 27.28-47.52 2.68-4.68 6.73-10.13.09-14.07-7.35-4.37-10 2.49-12.79 7.37-7.23 12.46-14.3 24.99-22.09 38.62z" fill="#fefefe"/><path d="m354.14 508.29c7.79-13.63 14.87-26.16 22.09-38.61 2.83-4.88 5.44-11.74 12.79-7.37 6.64 3.94 2.59 9.39-.09 14.07-9.05 15.86-18.05 31.76-27.28 47.52-5.34 9.14-11.24 9-16.12-.13-3.34-6.27-6.57-12.6-9.63-19-2-4.18-3.19-8.79 2.08-11.4 4.94-2.45 8.3.19 10.55 4.74 1.47 2.97 3.2 5.82 5.61 10.18z" fill="#29457e"/><path d="m214.42 667.27v-229.49s-1.52-15.46 10.08-21.43c0 0 123-28.24 228.85 132.46z" fill="#272f60"/><path d="m585.9 394.39q-57.54 0-115.07 0c-4.79 0-9.35-.7-9.34-6.68 0-5.37 3.71-7.63 8.82-7.72h7.13 142.56c26.14 0 52.28-.13 78.41.11 5.44.05 13.69-2.87 13.34 7.36-.35 9.88-8.48 6.81-13.84 6.84-37.33.2-74.67.09-112.01.09z" fill="#759dd1"/><path d="m564.07 336q45.78 0 91.56 0c5 0 10.91-1.16 11.21 6.65.32 8.43-5.84 7.59-11.3 7.6h-181.08c-1.36 0-2.72 0-4.07 0-5.08-.1-8.74-2.38-9-7.64-.33-6.28 4.38-6.63 9.09-6.62h36.63z" fill="#c7dbf2"/><path d="m531.6 479.68q-30.06 0-60.1 0c-4.8 0-10.45.48-10.08-6.62.3-5.81 4.64-7.65 10.06-7.65 40.07.05 80.13 0 120.19.08 4.88 0 9.94.6 10 7.32.06 7-5 6.9-10 6.89q-30.02-.04-60.07-.02z" fill="#c7dbf2"/><path d="m594.18 513.16c-2.84 5.8-7.7 9.69-12.74 13.41q-53 0-105.89 0a39.76 39.76 0 0 1 -8.11-.37c-3.64-.78-6.11-3.28-5.95-7.18.14-3.36 2.4-5.57 5.61-6.46a19.16 19.16 0 0 1 5-.4q58.55 0 117.1.06a26.93 26.93 0 0 1 4.98.94z" fill="#759dd1"/><path d="m797.84 668.89v-229.49s1.52-15.4-10.08-21.4c0 0-123-28.24-228.85 132.46z" fill="#272f60"/><g fill="none" stroke="#759dd1" stroke-miterlimit="10"><path d="m854.36 557.09a87.7 87.7 0 0 1 1.42 9.39" stroke-linecap="round" stroke-width="7"/><path d="m856.18 585.3c-2.25 34.31-23 83.69-132.66 50-159.73-49.09-280.44.16-288-2.2s-64.86 17.47-64.86 17.47l-58.08 12.35-6.27-.5" stroke-dasharray="18.85 18.85" stroke-linecap="round" stroke-width="7"/><path d="m296.88 661.67-9.47-.76a33.87 33.87 0 0 1 -4.26-8.46" stroke-linecap="round" stroke-width="7"/><path d="m280.6 633.87c.71-11.23 5.44-25.37 19.27-41.24 34.43-39.54 90.94 14.7 75.74 41.14-6.61 11.45-142.41 42.57-142.41 42.57s-56.83 20-114.3-136.66c0 0-14.94-36.55 8.91-91.21" stroke-dasharray="18.88 18.88" stroke-linecap="round" stroke-width="7"/><path d="m131.79 439.91q2.06-4.14 4.42-8.41" stroke-linecap="round" stroke-width="7"/><circle cx="813.83" cy="458.33" r="84.49" stroke-width="10"/></g><circle cx="813.83" cy="458.33" fill="#759dd1" r="68.5"/><path d="m781.81 484.58c7.67-10.59 5.58-22.21 6-33.52.48-12.05 6.68-20.26 17.66-25 .24-5.31 2.52-9.33 8.14-9.58 5-.23 8.09 2.62 8.27 7.94 14.57 8.29 20.51 20.78 18.35 37.32-1 7.92 1.29 15.2 6.12 22.81z" fill="#fefefe"/><path d="m823.45 491c0 4.91-4.43 7-9.35 7s-9.72-1.93-9.58-6.72c.18-6.03 18.95-4.97 18.93-.28z" fill="#fefefe"/><rect fill="#29457e" height="37.14" rx="3.52" transform="matrix(.70710678 .70710678 -.70710678 .70710678 397.71 -472.64)" width="8.03" x="765.36" y="225.19"/><rect fill="#272f60" height="42.63" rx="3.5" transform="matrix(.98967642 -.14331989 .14331989 .98967642 -25 107.16)" width="8.03" x="727.22" y="205.79"/><rect fill="#272f60" height="42.63" rx="3.5" transform="matrix(-.12793015 .99178318 -.99178318 -.12793015 1166.19 -461.61)" width="8.03" x="782.02" y="260.59"/><path d="m453.35 548.47 3.85 6.2-242.78 146.18v-34.99l238.48-117.82z" fill="#212146"/><path d="m797.85 668.74v32.77l-240.6-146.21 3.57-6.8z" fill="#212146"/><path d="m797.84 701.51v75.64c0 11.83-9.35 21.42-20.89 21.42h-541.64c-11.54 0-20.89-9.59-20.89-21.42v-76.3l242.78-146.18 29.13-17.55a39.6 39.6 0 0 1 41.16.09l29.76 18.09z" fill="#29457e"/><path d="m60.52 291.46 75.95 26.71s9.51 2 9.27 14.49l5.54 69.46 28-56.62s2.29-3.93 5.39-2.14l85.81 73.86s5.34 2.33 6.41-4.05l61.39-200.58s1.6-5.34-3.1-3.75l-274.18 80.62s-2.11.83-.48 2z" fill="#29457e"/><path d="m182.13 305.42-38.32 18.38a15.64 15.64 0 0 0 -7.34-5.63l-75.95-26.71s-1.92-.59.43-2 272.82-80.22 272.82-80.22 2.72-1 3.7-.5z" fill="#272f60"/><path d="m186.6 340.58 147.31-128.73 3.62-3.14-195.84 112.49s2 .82 3.46 6.1l6.13 74.82 28-56.62s2-3.77 5-2.35z" fill="#212146"/></svg>