<svg viewBox="0 0 40.29 42.12" xmlns="http://www.w3.org/2000/svg"><g fill="#d4d4d4"><path d="m18.27 0a9.42 9.42 0 0 1 9.15 9.54 17.2 17.2 0 0 1 -2.21 8.76c-3.64 6.29-10.35 6.35-13.93 0a15 15 0 0 1 -1.8-11.55 9.13 9.13 0 0 1 8.79-6.75zm5.07 5.9c-3.41 2-6.7 1.59-9.95.35-1.05-.4-1.6-.06-1.73.86-.18 1.3-.16 2.64-.23 4v.76l-1.09-.22a13.21 13.21 0 0 0 2.66 7.1c3 3.83 7.51 3.85 10.51 0a14.07 14.07 0 0 0 2.78-8.15c0-.06-.06-.13-.12-.25l-.71.54z"/><path d="m33.32 28.08a7 7 0 1 1 -7.07 6.92 7 7 0 0 1 7.07-6.92zm3.36 2.71-5.24 5.47-1.65-1.33-1.47 1.38 3 2.74 6.81-6.8z"/><path d="m33.31 25.84a9.25 9.25 0 0 0 -7.92 14.16c-2.39 0-4.88 0-7.32 0h-2.44c-3.2 0-6.4-.08-9.6-.21a6.31 6.31 0 0 1 -4.41-1.63c-.09-.09-.19-.19-.28-.3s-.09-.1-.13-.16a.76.76 0 0 0 -.08-.11l-.08-.11-.05-.1v-.06a.75.75 0 0 0 -.07-.12v-.06l-.17-.14v-.07a2.76 2.76 0 0 1 -.18-.39l-.09-.2a.19.19 0 0 0 0-.08 1.21 1.21 0 0 0 0-.14 8.49 8.49 0 0 1 -.49-2.66 11.32 11.32 0 0 1 .62-3.76 12.15 12.15 0 0 1 2.08-3.78l.15-.18.39-.44.08-.08a11.82 11.82 0 0 1 5.07-3.17c.79-.24 1.6-.37 2.09-.48l.38.62.73 1.22c1.24 2 2.42 4 3.6 5.92.36.58.71 1.16 1.06 1.74l.37-.17c.07-1 .27-2 .27-3a4 4 0 0 0 -1.15-3l-.05-.05a3.41 3.41 0 0 0 -.45-.39h5.6a3.67 3.67 0 0 0 -.46.4 3.76 3.76 0 0 0 -.76 1 4.38 4.38 0 0 0 -.43 2c0 1 .19 1.94.27 2.91l.37.17 1.37-2.26 4.4-7.24.35.07c.48.1 1.12.22 1.73.41a11.87 11.87 0 0 1 5.63 3.92z"/></g></svg>