<svg viewBox="0 0 81.8 70.3" xmlns="http://www.w3.org/2000/svg"><g fill="#e74c3c"><path d="m43.2 8.9c-21.5-4.4-33 9.9-34.8 21.6a27.4 27.4 0 0 0 23.5 31.5c15.4 1.9 32.6-11 30.3-30.8h7.8a33 33 0 0 1 -1.8 15.9c-4.9 12.6-14.1 20.1-27.2 22.6s-29-4.4-36.2-16.7a35.4 35.4 0 0 1 19-51.2c5.7-2 11.5-2.1 17.5-1.4a1.9 1.9 0 0 1 1.9 2.3c-.1 2 0 4 0 6.2z"/><path d="m50.7 11.8v-7.9l31.1-.2v8.2z"/><path d="m49.7 50.5c-5.4-3.3-10.4-6.7-15.7-9.7-2.2-1.3-3-2.6-2.9-5.2.2-6.1 0-12.2 0-18.4a10 10 0 0 1 .2-1.6h6.1v7.3c0 3.6.1 7.3-.1 10.9a3.8 3.8 0 0 0 2.1 3.7c4 2.3 8 4.8 12 7.2l1.3.9z"/></g></svg>