<svg viewBox="0 0 40.29 40.31" xmlns="http://www.w3.org/2000/svg"><g fill="#404040"><path d="m17.78 40.3c.84-.38 1.67-.7 2.44-1.12a14.19 14.19 0 0 0 5.66-5.42.55.55 0 0 1 .55-.32h7.49.43v-1.26h-7.63c.06-.17.09-.29.14-.4a14 14 0 0 0 .95-3.88c0-.28.14-.34.4-.34h6.16a9.91 9.91 0 0 0 0-1.1c0-.08-.21-.18-.32-.19-1.37 0-2.74 0-4.11 0h-2a14.32 14.32 0 0 0 -.75-4.58h6.81c.31 0 .4-.09.39-.4 0-.89 0-.9-.9-.89h-6.49c-.14 0-.37-.07-.42-.18a15.69 15.69 0 0 0 -3.13-4.39h10.89v-1.31h-12.11a1.09 1.09 0 0 1 -.56-.15 14.57 14.57 0 0 0 -10.97-2.37h-.2c0-.1 0-.19 0-.27q0-3.56 0-7.1a4.44 4.44 0 0 1 3.63-4.53 4.87 4.87 0 0 1 1-.09h15.72a.91.91 0 0 1 .7.3q4.26 4.25 8.51 8.5a.82.82 0 0 1 .22.51q0 13.23 0 26.47a4.45 4.45 0 0 1 -4.6 4.52c-5.52 0-11 0-16.56 0zm13-39.09-.13.08v3a4.37 4.37 0 0 0 4.35 4.45h2.85a1.2 1.2 0 0 0 .23-.05z"/><path d="m13.33 13a13.32 13.32 0 1 1 -13.33 13.24 13.33 13.33 0 0 1 13.33-13.24zm0 2.48a10.85 10.85 0 1 0 10.8 10.88 10.83 10.83 0 0 0 -10.77-10.87z"/><path d="m13.5 27.72-.17.21a.79.79 0 0 1 -.88.29.81.81 0 0 1 -.58-.76 1.37 1.37 0 0 1 0-.35.45.45 0 0 0 -.31-.52.88.88 0 0 1 -.62-.95c.06-.4.31-.6.92-.74v-.43c0-1.73 0-3.45 0-5.17a.83.83 0 0 1 .81-.88.85.85 0 0 1 .83.9v1.19 5a.47.47 0 0 0 .29.46c1.74 1 3.47 2 5.2 3l.25.14a.83.83 0 0 1 .32 1.13.8.8 0 0 1 -1.15.27c-1.52-.86-3-1.74-4.54-2.61z"/></g></svg>