<svg viewBox="0 0 849.2 594.44" xmlns="http://www.w3.org/2000/svg"><g fill="#fff"><path d="m0 592.76v-590.26h127.7v113.17c0 53.34.53 106.68-.32 160-.29 18.2 3.9 26.49 24.45 26.38 152.11-.8 304.23.33 456.32-1.05 67.84-.61 106-39.41 103.32-99.13-1.92-42.12-25.7-74.94-69.21-80-45.46-5.28-92-1.18-140.9-1.18v110h-127.53v-226.22c4.7-1.14 10.15-3.6 15.59-3.6 84.94.08 170-2.79 254.78 1.48 165.17 8.31 256.18 178.65 167.8 315.29-21.47 33.2-58 56.68-91.13 88 38.55 56.67 81.51 119.85 128.31 188.66-51.85 0-98.41.69-144.91-.8-6.3-.2-13.39-10.47-18.18-17.41-32.5-47.13-63.87-95.06-97.18-141.6-6.29-8.78-19.63-17.67-29.78-17.75-139.26-1.1-278.53-.68-417.8-.54-2.86 0-5.73 1-12.45 2.22v174.34z"/><path d="m498.9 593.78h-124.74v-107.73h124.74z"/></g></svg>