<svg viewBox="0 0 40.29 45.77" xmlns="http://www.w3.org/2000/svg"><g fill="#d4d4d4"><path d="m36.42 31a26.23 26.23 0 0 1 -1.65-11.71 14.76 14.76 0 0 0 -10.3-15 1.34 1.34 0 0 1 -.7-.91 3.64 3.64 0 0 0 -7.26 0 1.61 1.61 0 0 1 -.91 1 14.51 14.51 0 0 0 -9.87 11.49 19.3 19.3 0 0 0 -.19 3.65c0 3.87-.07 7.72-1.67 11.46z"/><path d="m14.92 38.39c-.64 2.73 0 5 2.24 6.44a5.2 5.2 0 0 0 6 0c2.28-1.48 2.85-3.72 2.25-6.43h12.59c1.43 0 2.28-.69 2.29-1.82s-.85-1.84-2.27-1.84h-35.78c-1.41-.01-2.24.74-2.24 1.86s.88 1.78 2.31 1.79z"/></g></svg>