<svg viewBox="0 0 120.19 116.06" xmlns="http://www.w3.org/2000/svg"><rect fill="#a855f7" height="116.06" rx="16.07" width="120.19"/><g fill="#fff"><path d="m88 71.9c-2.78-6.56-3.1-13.29-2.81-20.06a25.3 25.3 0 0 0 -17.69-25.75 2.28 2.28 0 0 1 -1.2-1.56c-.6-3.58-2.91-5.73-6.3-5.7s-5.49 2.2-6.13 5.68a2.78 2.78 0 0 1 -1.55 1.74c-9.35 3.44-15 10-16.91 19.76a31.76 31.76 0 0 0 -.32 6.25c.08 6.64-.13 13.22-2.87 19.64z"/><path d="m51.15 84.58c-1.09 4.68-.08 8.49 3.84 11a8.93 8.93 0 0 0 10.26 0c3.9-2.55 4.88-6.38 3.85-11h2.33q9.63 0 19.24 0c2.45 0 3.9-1.19 3.93-3.11s-1.45-3.15-3.89-3.15q-30.64 0-61.28 0c-2.41 0-3.88 1.27-3.83 3.19s1.5 3.06 4 3.07c7.06.01 14.17 0 21.55 0z"/></g></svg>