<svg viewBox="0 0 85.8 82.1" xmlns="http://www.w3.org/2000/svg"><g fill="#2ecc71"><path d="m45.3 17.7c-22.5-4.6-34.6 10.4-36.4 22.7a28.6 28.6 0 0 0 24.6 33c16.1 2 34.2-11.5 31.7-32.3h8.2a33.8 33.8 0 0 1 -1.9 16.7c-5.1 13.2-14.7 21-28.5 23.7s-30.4-4.7-37.9-17.6a37 37 0 0 1 19.8-53.6 39.7 39.7 0 0 1 18.4-1.5c1.5.2 2.1.9 2 2.4s0 4.2 0 6.5z"/><path d="m65.2 20.7h-12v-8.2h12v-8.9c0-3.7 0-3.7 3.8-3.5h4.7v12.1h12.1v8.7h-12v12.2c-2.6 0-5 .1-7.3-.1-.5 0-1.2-1.2-1.2-1.9-.1-3.4-.1-6.7-.1-10.4z"/><path d="m52.1 61.3c-5.6-3.5-10.9-7-16.4-10.1-2.4-1.4-3.2-2.8-3.1-5.5.2-6.4 0-12.8 0-19.3 0-.5.2-1 .2-1.6h6.4v7.6c0 3.8.1 7.6-.1 11.4a3.9 3.9 0 0 0 2.2 3.9c4.3 2.4 8.4 5 12.6 7.5l1.4 1z"/></g></svg>