<svg viewBox="0 0 120.19 116.06" xmlns="http://www.w3.org/2000/svg"><rect fill="#a855f7" height="116.06" rx="16.07" width="120.19"/><g fill="#fff"><path d="m25.6 57.73c.32-17.09 12.69-33.19 33.14-34.16 19.61-.94 34.34 14.11 35.75 32a34.2 34.2 0 0 1 -32.75 36.92c-19.05.93-35.74-13.49-36.14-34.76zm34.54 27.69c14 .46 27-11.85 27.42-26.11.42-15.37-11-28.74-27.86-28.59a27.35 27.35 0 0 0 .44 54.7z"/><path d="m45.26 72.19c1.44-1.25 2.87-2.39 4.17-3.66 3.18-3.1 6.35-6.22 9.41-9.44a4.69 4.69 0 0 0 1.16-2.85c.09-5.55 0-11.11 0-16.67 0-.64 0-1.29 0-1.9 7.29-1.07 15.74 4.07 19.26 12.16a21.11 21.11 0 0 1 -7.83 25.58 20.71 20.71 0 0 1 -26.17-3.22z"/></g></svg>