<svg viewBox="0 0 50 50" xmlns="http://www.w3.org/2000/svg"><g fill="#a855f7"><path d="m0 24.79c.24-12.39 9.2-24.05 24-24.79 14.23-.65 24.9 10.25 25.92 23.24a24.78 24.78 0 0 1 -23.73 26.76c-13.8.64-25.89-9.83-26.19-25.21zm25 20.06c10.14.33 19.6-8.59 19.87-18.92.3-11.14-8-20.83-20.18-20.72a19.55 19.55 0 0 0 -19.44 19.25 19.67 19.67 0 0 0 19.75 20.39z"/><path d="m14.25 35.26c1-.91 2.08-1.73 3-2.65 2.31-2.25 4.6-4.5 6.82-6.84a3.35 3.35 0 0 0 .93-2.07c.07-4 0-8 0-12.07 0-.47 0-.94 0-1.38 5.28-.78 11.41 2.95 14 8.81a15.3 15.3 0 0 1 -5.76 18.54 15 15 0 0 1 -18.99-2.34z"/></g></svg>