<svg viewBox="0 0 40.29 41.34" xmlns="http://www.w3.org/2000/svg"><path d="m.38 13.64q1.89-3.29 3.8-6.57c.49-.85.88-1 1.79-.63 1.48.6 3 1.19 4.43 1.8a.65.65 0 0 0 .66-.07c.94-.58 1.94-1.11 2.88-1.69a.82.82 0 0 0 .35-.48c.26-1.65.48-3.32.74-5a1 1 0 0 1 1.18-1h7.94a1 1 0 0 1 1.2 1c.25 1.64.49 3.29.71 4.93a.63.63 0 0 0 .4.53c.93.51 1.86 1 2.76 1.6a.78.78 0 0 0 .83.1c1.47-.56 2.95-1.16 4.44-1.74.84-.34 1.22-.21 1.68.58l3.83 6.66a1.15 1.15 0 0 1 -.34 1.76c-1.27 1-2.55 2-3.81 3a.87.87 0 0 0 -.26.6q0 1.66 0 3.33a.85.85 0 0 0 .26.59c1.26 1 2.54 2 3.81 3a1.15 1.15 0 0 1 .34 1.74l-3.81 6.62c-.48.83-.88 1-1.76.61-1.48-.6-3-1.18-4.44-1.8a.64.64 0 0 0 -.69.08c-.92.56-1.85 1.11-2.8 1.62a.75.75 0 0 0 -.45.6c-.2 1.56-.42 3.1-.66 4.65-.16 1.07-.41 1.28-1.48 1.28h-7.47c-1 0-1.32-.26-1.47-1.3-.22-1.57-.44-3.14-.68-4.7a.85.85 0 0 0 -.36-.48c-.94-.57-1.9-1.09-2.83-1.67a.71.71 0 0 0 -.74-.06c-1.51.62-3 1.22-4.53 1.82a1.08 1.08 0 0 1 -1.58-.54c-1.31-2.25-2.6-4.5-3.9-6.75a1.14 1.14 0 0 1 .33-1.72c1.25-.94 2.48-1.94 3.74-2.94a.87.87 0 0 0 .37-.85c0-1 0-2 0-3a.91.91 0 0 0 -.4-.89c-1.25-.91-2.49-1.88-3.7-2.86a5.13 5.13 0 0 1 -.69-.85c.16-.38.24-.66.38-.91zm12.57 7a7.24 7.24 0 1 0 7.25-7.23 7.28 7.28 0 0 0 -7.2 7.26z" fill="#d4d4d4"/></svg>