<svg viewBox="0 0 753 753.2" xmlns="http://www.w3.org/2000/svg" xmlns:xlink="http://www.w3.org/1999/xlink"><linearGradient id="a" gradientUnits="userSpaceOnUse" x1="843.11" x2="178.99" y1="969.83" y2="145.03"><stop offset="0" stop-color="#dae3fe"/><stop offset="1" stop-color="#e9effd"/></linearGradient><linearGradient id="b" x1="160.39" x2="217.53" xlink:href="#a" y1="380.31" y2="380.31"/><linearGradient id="c" x1="96.85" x2="153.87" xlink:href="#a" y1="380.31" y2="380.31"/><linearGradient id="d" x1="33.38" x2="90.28" xlink:href="#a" y1="380.3" y2="380.3"/><linearGradient id="e" x1="159.68" x2="216.72" xlink:href="#a" y1="421.88" y2="421.88"/><linearGradient id="f" x1="96.26" x2="153.17" xlink:href="#a" y1="421.86" y2="421.86"/><linearGradient id="g" x1="32.89" x2="89.69" xlink:href="#a" y1="421.83" y2="421.83"/><linearGradient id="h" x1="158.98" x2="215.91" xlink:href="#a" y1="463.09" y2="463.09"/><linearGradient id="i" x1="95.66" x2="152.48" xlink:href="#a" y1="463.04" y2="463.04"/><linearGradient id="j" x1="32.41" x2="89.11" xlink:href="#a" y1="463" y2="463"/><linearGradient id="k" x1="158.27" x2="215.11" xlink:href="#a" y1="504.16" y2="504.16"/><linearGradient id="l" x1="95.07" x2="151.78" xlink:href="#a" y1="504.09" y2="504.09"/><linearGradient id="m" x1="31.92" x2="88.52" xlink:href="#a" y1="504.02" y2="504.02"/><linearGradient id="n" x1="157.57" x2="214.31" xlink:href="#a" y1="545.08" y2="545.08"/><linearGradient id="o" x1="94.48" x2="151.09" xlink:href="#a" y1="544.99" y2="544.99"/><linearGradient id="p" x1="31.44" x2="87.94" xlink:href="#a" y1="544.91" y2="544.91"/><linearGradient id="q" x1="156.87" x2="213.51" xlink:href="#a" y1="585.86" y2="585.86"/><linearGradient id="r" x1="93.89" x2="150.41" xlink:href="#a" y1="585.76" y2="585.76"/><linearGradient id="s" x1="30.96" x2="87.36" xlink:href="#a" y1="585.65" y2="585.65"/><linearGradient id="t" x1="156.18" x2="212.72" xlink:href="#a" y1="626.51" y2="626.51"/><linearGradient id="u" x1="93.3" x2="149.72" xlink:href="#a" y1="626.38" y2="626.38"/><linearGradient id="v" x1="30.48" x2="86.79" xlink:href="#a" y1="626.25" y2="626.25"/><linearGradient id="w" x1="155.48" x2="211.92" xlink:href="#a" y1="667.01" y2="667.01"/><linearGradient id="x" x1="92.71" x2="149.04" xlink:href="#a" y1="666.86" y2="666.86"/><linearGradient id="y" x1="30" x2="86.21" xlink:href="#a" y1="666.71" y2="666.71"/><linearGradient id="z" x1="154.79" x2="211.13" xlink:href="#a" y1="707.37" y2="707.37"/><linearGradient id="A" x1="92.13" x2="148.36" xlink:href="#a" y1="707.2" y2="707.2"/><linearGradient id="B" x1="29.53" x2="85.64" xlink:href="#a" y1="707.03" y2="707.03"/><linearGradient id="C" gradientUnits="userSpaceOnUse" x1="513.27" x2="314.73" y1="264.2" y2="1640.29"><stop offset="0" stop-color="#febbba"/><stop offset="1" stop-color="#ff928e"/></linearGradient><linearGradient id="D" x1="508.06" x2="309.52" xlink:href="#C" y1="263.45" y2="1639.54"/><linearGradient id="E" gradientUnits="userSpaceOnUse" x1="519.4" x2="810.45" y1="420.7" y2="-157.98"><stop offset="0" stop-color="#fe7062"/><stop offset="1" stop-color="#ff928e"/></linearGradient><linearGradient id="F" gradientTransform="translate(2420.6)" gradientUnits="userSpaceOnUse" x1="-2293.14" x2="-2260.94" y1="737.96" y2="737.96"><stop offset="0" stop-color="#09005d"/><stop offset="1" stop-color="#1a0f91"/></linearGradient><linearGradient id="G" x1="136.42" x2="130.27" xlink:href="#C" y1="701.31" y2="754.98"/><linearGradient id="H" x1="-2244.11" x2="-2197.77" xlink:href="#F" y1="738.78" y2="738.78"/><linearGradient id="I" gradientTransform="matrix(.99802673 -.06279052 .06279052 .99802673 2328.5 -33.9)" x1="-2185.23" x2="-2191.38" xlink:href="#C" y1="604.61" y2="658.28"/><linearGradient id="J" gradientTransform="matrix(-1 0 0 1 -3118.96 0)" x1="-3296.14" x2="-3232.49" xlink:href="#F" y1="751.94" y2="448.42"/><linearGradient id="K" x1="160.95" x2="175.23" xlink:href="#C" y1="388.49" y2="349.49"/><linearGradient id="L" x1="196.06" x2="110.96" xlink:href="#C" y1="329.99" y2="397.76"/><linearGradient id="M" x1="-2257.4" x2="-2218.39" xlink:href="#F" y1="307.69" y2="357.91"/><linearGradient id="N" x1="187.49" x2="145.61" xlink:href="#C" y1="326.27" y2="358.32"/><linearGradient id="O" gradientTransform="matrix(-1 0 0 1 -3118.96 0)" x1="-3405.57" x2="-3316.9" xlink:href="#C" y1="347.44" y2="424.04"/><linearGradient id="P" gradientTransform="matrix(-1 0 0 1 -3118.96 0)" x1="-3407.42" x2="-3321.11" xlink:href="#C" y1="354.58" y2="429.14"/><linearGradient id="Q" gradientTransform="matrix(-1 0 0 1 -3118.96 0)" x1="-3408.86" x2="-3320.18" xlink:href="#C" y1="351.24" y2="427.84"/><linearGradient id="R" gradientTransform="matrix(.46019978 -.88781539 .88781539 .46019978 1375.8 -2304.5)" gradientUnits="userSpaceOnUse" x1="-2770.02" x2="-2929.82" y1="85.08" y2="420.3"><stop offset="0" stop-color="#e1473d"/><stop offset="1" stop-color="#e9605a"/></linearGradient><linearGradient id="S" gradientTransform="matrix(.96501649 -.26218918 .26218918 .96501649 -1143.2 1937.6)" x1="1948.78" x2="1855.14" xlink:href="#E" y1="-1223.59" y2="-1037.27"/><linearGradient id="T" gradientTransform="matrix(.46019978 -.88781539 .88781539 .46019978 1375.8 -2304.5)" gradientUnits="userSpaceOnUse" x1="-2891.17" x2="-2752.87" y1="175.28" y2="499.65"><stop offset="0" stop-color="#ff9085"/><stop offset="1" stop-color="#fb6fbb"/></linearGradient><linearGradient id="U" x1="362.3" x2="447.36" xlink:href="#E" y1="330.33" y2="114.06"/><linearGradient id="V" x1="409.15" x2="394.68" xlink:href="#E" y1="100.24" y2="128.29"/><linearGradient id="W" gradientTransform="matrix(.94776841 -.31895931 .31895931 .94776841 1792.7 -2757.5)" x1="-2488.65" x2="-2595.67" xlink:href="#C" y1="2509.49" y2="2695.45"/><path d="m663.1 642.7c-15.4 16-30 26.3-41.5 34.4-135.3 95.6-295.5 67.7-329.5 60.9-50.3-10-147.4-29.5-217.7-110.8-106.2-123-89.7-316.7-7.2-444.6 15-23.4 94.7-153.3 256.5-174.1 98-12.6 212.2 12.8 294.9 81 173.5 143.1 161.2 432.3 44.5 553.2z" fill="url(#a)"/><path d="m143.5 213.6a6.7 6.7 0 0 1 6.8-6.5h226c3.7 0 7.7 3 7.7 6.7v512a10.5 10.5 0 0 1 -3.6 7.3 11.4 11.4 0 0 1 -7.7 3l-228.4-.6a10.8 10.8 0 0 1 -7.6-3.1 10.4 10.4 0 0 1 -3.1-7.4z" fill="#bdd0fb"/><g fill="#fff" opacity=".52"><path d="m273.2 243.4 73.9-.3v-8.9l-73.8.2z"/><path d="m273 276.5 74.2-.4v-9l-74.1.3z"/><path d="m272.8 309.8 74.5-.4v-9.1l-74.4.4z"/><path d="m272.6 343.4 74.9-.5-.1-9.2-74.7.5z"/><path d="m272.4 377.3 75.2-.5-.1-9.3-75 .5z"/><path d="m272 446 75.8-.7-.1-9.5-75.6.8z"/><path d="m271.4 551.2 76.7-1v-9.7l-76.7 1z"/><path d="m272.2 411.5 75.5-.6-.1-9.4-75.3.7z"/><path d="m271.8 480.8 76.1-.9-.1-9.5-76 .8z"/><path d="m271.6 515.9 76.4-1-.1-9.6-76.3.9z"/><path d="m271.1 586.9 77.1-1.1v-9.8l-77 1.1z"/><path d="m270.9 622.9 77.4-1.3v-9.8l-77.3 1.2z"/><path d="m270.7 659.1 77.7-1.3v-9.9l-77.6 1.3z"/><path d="m270.5 695.7 78-1.4v-10l-78 1.4z"/><path d="m176.3 243.7 74.4-.2.1-9.1-74.3.3z"/><path d="m175.7 276.9 74.7-.3.1-9.1-74.6.3z"/><path d="m175.1 310.3 75-.4.1-9.1-74.9.4z"/><path d="m174.5 344.1 75.3-.5.1-9.2-75.2.4z"/><path d="m173.9 378.1 75.6-.6.1-9.3-75.5.6z"/><path d="m172.7 447 76.2-.8.1-9.4-76.2.7z"/><path d="m170.7 552.6 77.3-1.1.1-9.7-77.2 1z"/><path d="m173.3 412.4 75.9-.7.1-9.3-75.8.6z"/><path d="m172 481.9 76.6-.9.1-9.5-76.5.8z"/><path d="m171.4 517.1 76.9-1 .1-9.6-76.8.9z"/><path d="m170.1 588.3 77.5-1.1.1-9.8-77.4 1.1z"/><path d="m169.4 624.4 77.9-1.2.1-9.9-77.8 1.2z"/><path d="m168.8 660.8 78.2-1.3.1-9.9-78.2 1.3z"/><path d="m168.1 697.6 78.6-1.4.1-10.1-78.5 1.4z"/></g><path d="m13.9 354.9c.1-4.2 4.3-7.7 9.6-7.7h199c5.3 0 10.6 3.7 10.6 7.9v378.9c0 2.1-1.5 4-3.3 5.5a12 12 0 0 1 -7.1 2.2l-208.1-.4a11.7 11.7 0 0 1 -6.9-2.4 7.1 7.1 0 0 1 -2.8-5.5z" fill="#bdd0fb"/><path d="m160.4 391.9 56.7-.1.4-23.1h-56.7z" fill="url(#b)"/><path d="m96.9 391.9 56.6-.1.4-23.1h-56.7z" fill="url(#c)"/><path d="m33.4 391.9 56.6-.1.3-23.1h-56.6z" fill="url(#d)"/><path d="m159.7 433.3 56.6.1.4-23h-56.6z" fill="url(#e)"/><path d="m96.3 433.3h56.5l.4-22.9h-56.6z" fill="url(#f)"/><path d="m32.9 433.3h56.5l.3-22.9h-56.5z" fill="url(#g)"/><path d="m159 474.5h56.5l.4-22.8-56.5-.1z" fill="url(#h)"/><path d="m95.7 474.4 56.4.1.4-22.9h-56.5z" fill="url(#i)"/><path d="m32.4 474.4h56.4l.3-22.8h-56.4z" fill="url(#j)"/><path d="m158.3 515.5 56.4.1.4-22.8-56.4-.1z" fill="url(#k)"/><path d="m95.1 515.4 56.3.1.4-22.8h-56.4z" fill="url(#l)"/><path d="m31.9 515.4h56.3l.3-22.7-56.3-.1z" fill="url(#m)"/><path d="m157.6 556.4 56.3.1.4-22.7-56.3-.1z" fill="url(#n)"/><path d="m94.5 556.3 56.2.1.4-22.7-56.3-.1z" fill="url(#o)"/><path d="m31.4 556.2 56.2.1.3-22.7-56.2-.1z" fill="url(#p)"/><path d="m156.9 597.1 56.2.1.4-22.6-56.2-.1z" fill="url(#q)"/><path d="m93.9 597 56.1.1.4-22.6-56.2-.1z" fill="url(#r)"/><path d="m31 596.9 56 .1.4-22.6-56.2-.1z" fill="url(#s)"/><path d="m156.2 637.7 56.1.1.4-22.5-56.1-.1z" fill="url(#t)"/><path d="m93.3 637.6 56 .1.4-22.5-56.1-.1z" fill="url(#u)"/><path d="m30.5 637.4 56 .2.3-22.6-56.1-.1z" fill="url(#v)"/><path d="m155.5 678.2 56 .1.4-22.5-56-.1z" fill="url(#w)"/><path d="m92.7 678 56 .1.3-22.4-56-.1z" fill="url(#x)"/><path d="m30 677.9 55.9.1.3-22.4-55.9-.2z" fill="url(#y)"/><path d="m154.8 718.5 55.9.1.4-22.4-55.9-.1z" fill="url(#z)"/><path d="m92.1 718.3 55.9.2.4-22.4-55.9-.2z" fill="url(#A)"/><path d="m29.5 718.1 55.8.2.3-22.4-55.8-.1z" fill="url(#B)"/><path d="m533.3 363.9c.1-4.2 4.3-7.6 9.6-7.6h199c5.3 0 10.6 3.6 10.6 7.8v379c0 2-1.5 4-3.3 5.4a12 12 0 0 1 -7.1 2.3l-208.1-.5a11 11 0 0 1 -6.9-2.3 7.3 7.3 0 0 1 -2.8-5.6z" fill="#bdd0fb"/><g fill="#fff" opacity=".5"><path d="m679.8 400.9h56.7l.4-23.1h-56.7z"/><path d="m616.3 400.9h56.6l.4-23.1h-56.7z"/><path d="m552.8 400.9h56.6l.3-23.1h-56.6z"/><path d="m679.1 442.4h56.6l.4-22.9h-56.6z"/><path d="m615.7 442.4h56.5l.4-22.9-56.6-.1z"/><path d="m552.3 442.3h56.5l.3-22.9h-56.5z"/><path d="m678.4 483.5 56.5.1.4-22.9h-56.5z"/><path d="m615.1 483.5h56.4l.4-22.8h-56.5z"/><path d="m551.8 483.4 56.4.1.3-22.9h-56.4z"/><path d="m677.7 524.6h56.4l.4-22.8h-56.4z"/><path d="m614.5 524.5h56.3l.4-22.7-56.4-.1z"/><path d="m551.3 524.4 56.3.1.3-22.8h-56.3z"/><path d="m677 565.4 56.3.1.4-22.7-56.3-.1z"/><path d="m613.9 565.3 56.2.1.4-22.7h-56.3z"/><path d="m550.8 565.2 56.2.1.3-22.6-56.2-.1z"/><path d="m676.3 606.2 56.2.1.4-22.7h-56.2z"/><path d="m613.3 606.1 56.1.1.4-22.7h-56.2z"/><path d="m550.4 605.9 56 .1.4-22.6h-56.2z"/><path d="m675.6 646.8 56.1.1.4-22.6-56.1-.1z"/><path d="m612.7 646.6 56 .1.4-22.5-56.1-.1z"/><path d="m549.9 646.5 56 .1.3-22.5-56.1-.1z"/><path d="m674.9 687.2 56 .2.4-22.5-56-.1z"/><path d="m612.1 687.1 56 .1.3-22.5-56-.1z"/><path d="m549.4 686.9 55.9.1.3-22.4-55.9-.1z"/><path d="m674.2 727.5 55.9.2.4-22.4-55.9-.1z"/><path d="m611.5 727.4 55.9.1.4-22.4-55.9-.1z"/><path d="m548.9 727.2 55.8.1.3-22.3-55.8-.2z"/></g><path d="m335.4 467c-16.2-51-47.6-91.6-84.8-115.5-33.3-21.4-57.3-54.6-66.2-93-.9-4.1-2-8.1-3.3-12.2-19.5-61.3-73.1-99-119.6-84.2s-68.5 76.6-49 137.9a152.8 152.8 0 0 0 15.9 34.4c20.8 32.9 28.9 72.4 21.2 110.6-6.8 34.1-4.9 72.5 7.3 110.7 18.1 57 55.3 101.1 98.3 123.3a150.1 150.1 0 0 1 43 33.3c20.2 22.7 48.7 33.3 74.8 25 28.2-9 45.8-37.5 47.1-70.8a158.9 158.9 0 0 1 12.3-54.8c17.1-41.3 19.5-93.2 3-144.7z" fill="#91b3fa"/><path d="m98.5 222.2c19 38.6 36.8 77.7 54.1 117.1 4.3 9.8 8.5 19.7 12.7 29.6l6.3 14.9 6.2 14.9c4.1 9.9 8.3 19.8 12.3 29.8l11.9 29.9c7.6 20.1 15.5 40.1 22.8 60.4 3.7 10.1 7.5 20.1 11 30.3l10.5 30.5c13.7 40.8 26.3 81.9 36.7 123.6l-1.8.5-9-30.9-2.2-7.7-2.5-7.7-4.9-15.3-4.8-15.4c-1.7-5.1-3.5-10.2-5.2-15.2-3.4-10.2-6.8-20.4-10.4-30.5-14.4-40.5-29.3-80.7-45.1-120.7-8-19.9-15.9-39.8-24.1-59.7l-6-14.9-6.3-14.9c-4.1-9.9-8.2-19.8-12.5-29.6-8.3-19.8-16.7-39.6-25.4-59.3s-17.2-39.3-25.9-58.9z" fill="#fff" opacity=".57"/><path d="m471.3 365.6c-7.6-55.6-32.7-103.4-66.7-134.8a159.6 159.6 0 0 1 -51.5-108.2q-.3-6.6-1.2-13.2c-9.2-67-57.6-115.6-108.2-108.7s-84.3 66.7-75.1 133.7a153.5 153.5 0 0 0 10.2 38.5c15.4 37.8 16.7 80.1 2 118.2-13.1 34-18.1 74.1-12.4 115.8 8.5 62.3 38.8 114.6 79.1 145.4a156.5 156.5 0 0 1 38.5 42.2c16.7 27.1 44.1 43.3 72.5 39.4 30.7-4.2 53.9-30.5 61.2-64.7a167.1 167.1 0 0 1 22.6-54.5c24.9-39.5 36.7-92.8 29-149.1z" fill="#7d97f4"/><path d="m271.1 69.5c12.7 43.3 23.9 87.1 34.7 130.9 2.7 11 5.2 22 7.8 33l3.8 16.5 3.7 16.5c2.4 11 5 22 7.3 33.1l6.9 33.1c4.3 22.2 8.8 44.3 12.7 66.5 2 11.2 4.2 22.2 5.9 33.4l5.4 33.5c6.7 44.6 12.3 89.5 15.7 134.5l-2 .2-3.8-33.6-.9-8.4-1.1-8.4-2.3-16.8-2.3-16.7c-.7-5.6-1.7-11.2-2.5-16.7-1.8-11.2-3.4-22.3-5.3-33.4q-11.2-66.7-24.8-133c-4.7-22.1-9.2-44.1-14.1-66.2l-3.6-16.5-3.8-16.5c-2.4-11-4.9-22-7.5-32.9q-7.5-33-15.6-65.9t-16.2-65.7z" fill="#fff" opacity=".57"/><rect fill="#142d5d" height="609.57" rx="23" width="454.3" x="255.8" y="138.8"/><rect fill="#7d97f4" height="437.69" rx="20.6" width="341.9" x="311.6" y="230.4"/><rect fill="#142d5d" height="371.24" rx="22.8" width="290" x="337.7" y="266.4"/><circle cx="482.2" cy="185.5" fill="#7d97f4" r="13.6"/><path d="m570 405-174.9 2.9c-13.3.2-24.1 10.5-24.1 23.1v110.1c0 12.5 10.8 22.3 24.1 21.7l174.9-7c12.6-.5 22.7-10.7 22.7-22.8v-106.5c0-12.1-10.1-21.8-22.7-21.5z" fill="url(#C)"/><path d="m578.9 385a9.3 9.3 0 0 1 -9.6-9.1v-24.1c0-24.2-20.5-43.8-45.8-43.7l-57 .2c-26 0-47.2 20.2-47.2 45v24.6c0 5.3-4.5 9.6-10.1 9.7s-10.1-4.1-10.1-9.4v-24.7c0-35.4 30.4-64.1 67.4-64.1h57c35.9 0 64.9 27.9 64.9 62.2v24a9.5 9.5 0 0 1 -9.5 9.4z" fill="url(#D)"/><path d="m510.9 466c0-12.3-10.7-21.9-23.7-21-11.5.8-21 10-21.6 21a20.7 20.7 0 0 0 11.3 19.6 7.6 7.6 0 0 1 3.9 8.2l-4.9 28c-.7 3.6 2.2 6.7 6 6.6l12.8-.5a6.1 6.1 0 0 0 6-6.9l-5-27.8a8.2 8.2 0 0 1 4.1-8.4 22 22 0 0 0 11.1-18.8z" fill="url(#E)"/><path d="m159.7 749.4c0-.2-.1-.5-.1-.7-3.6-14.4-21.6-23.3-21.6-23.3l-7.2.5c-4.1 12.7-3.5 20.5-2.9 23.9 0 .1.1.2.1.3a168.3 168.3 0 0 0 31.7-.7z" fill="url(#F)"/><path d="m128 750.1a3 3 0 0 0 2.2 2.3c8.4 1.8 21.7.3 27.3-.4a2.7 2.7 0 0 0 2.2-2.6 168.3 168.3 0 0 1 -31.7.7z" fill="#91b3fa"/><path d="m128 715.3 3 14.5a2.3 2.3 0 0 0 2 2 18.9 18.9 0 0 0 4.7-.1 3.1 3.1 0 0 0 2.4-3.5l-2.1-12.9z" fill="url(#G)"/><path d="m190.5 749.9c-7.8-.2-11.9-1.1-14-2v2.4a1.6 1.6 0 0 0 1.5 1.6l43.2-.3a1.9 1.9 0 0 0 1.6-2.8c-5.6.4-20.1 1.5-32.3 1.1z" fill="#91b3fa"/><path d="m222.8 748.8c0-.2-.1-.3-.1-.4-3.9-5.3-13.6-15.9-32.8-20.5l-9.2-.3s-4.1 7.1-4.2 20.3c2.1.9 6.2 1.8 14 2 12.2.4 26.7-.7 32.3-1.1z" fill="url(#H)"/><path d="m178.5 714c.2.7 2.1 11 2.9 15.1a2 2 0 0 0 1.8 1.7 24.4 24.4 0 0 0 6.3-.5 2.8 2.8 0 0 0 1.9-2.9l-1.1-16.4z" fill="url(#I)"/><path d="m171.6 523s12.6 87.1 21.8 190.9a4 4 0 0 1 -3.3 4 46.9 46.9 0 0 1 -10.3 1.2 3.8 3.8 0 0 1 -3.6-3.2c-3.1-18.3-25.4-116.5-31.2-138.1 0 0-6.7 91.8-4.6 139.4a2.3 2.3 0 0 1 -2 2.4 38.7 38.7 0 0 1 -8.3-.1 3.1 3.1 0 0 1 -2.7-2.5c-2.2-15.5-15-107.6-14.4-174 0-3.7 4.4-34.5 4.4-34.5z" fill="url(#J)"/><path d="m176.5 376.4 1.7 45.6a103.7 103.7 0 0 0 13.8 3.9c2.7-8.8 8.7-19.6 13.7-27.6-18.2-6.4-29.2-21.9-29.2-21.9z" fill="#142d5d"/><path d="m115.5 528a3.7 3.7 0 0 1 -2.4-3c-1.7-16.4-9.8-117.9 41.7-159.6 0 0 3-7.7 27.3 11.3s11.3 38.9 5.5 66.4c-7.1 33.3-19.4 60.5-14 81a2.8 2.8 0 0 1 -1.7 3.4c-18.9 6.9-37.7 7.2-56.4.5z" fill="#142d5d"/><path d="m174.9 335c0 1.4-20.6 30.7-20.6 30.7s3.7 7.3 21.4 13.2l15.2-31.3z" fill="url(#K)"/><path d="m164.7 435.1h-.3c-16.5-11.2-24.2-29.1-24.3-29.3a.6.6 0 0 1 .4-.8.6.6 0 0 1 .8.3c.1.2 7.7 17.8 23.8 28.7a.7.7 0 0 1 .2.9.6.6 0 0 1 -.6.2z" fill="#142d5d"/><path d="m189.2 410.2a.5.5 0 0 1 -.5-.3c-.1-.1-5.1-7.9-14.7-25-2.9-5.3-6.8-8.6-11.5-9.9-7.7-2.2-15.2 1.9-15.3 2a.7.7 0 0 1 -.6-1.2c.3-.2 8-4.5 16.3-2.1 5 1.4 9.2 4.9 12.3 10.5 9.5 17.1 14.5 24.9 14.6 25a.7.7 0 0 1 -.2.9z" fill="#142d5d"/><path d="m191.1 318.2s7.4 16.9 7.9 25.7 2.4 14.6-7.9 16.4-18.8-3.4-23.4-12.2c0 0-7.3-13.5-5.7-19.1s29.1-10.8 29.1-10.8z" fill="url(#L)"/><path d="m171.2 341.8.5-.2a1.4 1.4 0 0 0 .7-2c-1.4-2.7-4.2-9.1-.6-10.6s23.2-5.7 27.2-12.3.4-14.4-4.7-16.8a.8.8 0 0 0 -.9.3l-.4.8a.7.7 0 0 1 -1.3-.1.7.7 0 0 0 -1.3-.2c-1.2 2-4.5 5.2-13.4 6.8-12.6 2.4-20.9 7.5-21.1 16.2a.7.7 0 0 1 -1.1.5c-.9-.5-2.4-.8-4.4.9s-2 10.4 5.5 16.6a.7.7 0 0 1 0 1.1c-1.4.9-3.4 3.1 1.9 5.9s9.6 2.7 11.2 2.4.6-.4.5-.8l-1.6-7.6a.7.7 0 0 1 .6-.9z" fill="url(#M)"/><path d="m171.5 343.4s-2.8-10.7-7.6-7.7 2.5 12 6.3 12.4z" fill="url(#N)"/><path d="m266.3 373s-3.6-6.5-3.4-9.7-1.7-7.8.4-7.5 2.5.1 3.1 3.9 7.2 20.4-.1 13.3z" fill="url(#O)"/><path d="m267 362.6v13c-24.8 26.9-44.9 28.4-61.2 22.7-5 8-11 18.8-13.7 27.6 66.3 14.7 82-46.4 82-46.4 9-3.7 10.8-5.9 10.4-8.3z" fill="url(#P)"/><path d="m286.1 349.7c-2.1-.8-6.2-8.8-7-6.2s.3 6.2 0 7.3-5.5 13.9-4.5 16.7 4.9 1.7 5.5 5.1a2.1 2.1 0 0 0 4.2 0c.1-.5 4-22 1.8-22.9z" fill="url(#Q)"/><path d="m218.4 322.6a67.3 67.3 0 0 0 108.3 77.2l115.2 58.2a6.3 6.3 0 0 0 6.1-.2l11.2-6.7.6-.4h.1l.4-.3h.1l.5-.5a6.2 6.2 0 0 0 .9-6.3l-9.1-22.9a6.1 6.1 0 0 0 -3-3.3l-11.5-5.8-3.1 6-9.9-5 3-6-9.2-4.7-2.8 5.5-12.1-6.1 2.8-5.5-4.5-2.3-1.4 2.9-10.1-5.1 1.4-2.9-7.8-4-3.1 6.1-5.6-2.9 3.1-6-4.9-2.5-3 6.1-9.8-4.9 3.1-6.1-13.7-6.9-5.8-3a67.3 67.3 0 0 0 -126.4-41.5zm39.2 4.6a13.6 13.6 0 1 1 -18.3 6 13.5 13.5 0 0 1 18.3-6z" fill="url(#R)"/><path d="m311.8 342.9 54.6 27.7-3.1 6 9.7 4.9 3.1-6 4.9 2.4-3.1 6.1 5.6 2.8 3.1-6 7.8 3.9-1.4 2.9 10.1 5.1 1.4-2.9 4.5 2.3-2.8 5.6 12 6.1 2.8-5.6 9.3 4.7-3 6 9.9 5 3-6 11.6 5.8a6.9 6.9 0 0 1 3 3.3l9.1 23a6.3 6.3 0 0 1 -2.6 7.7l-11.3 6.7a6.4 6.4 0 0 1 -6 .2l-139-70.3z" fill="url(#S)"/><path d="m250.1 409.5a67.2 67.2 0 1 0 -29.6-90.3 67.2 67.2 0 0 0 29.6 90.3zm-2.7-61.4a13.7 13.7 0 1 1 18.3-6.1 13.6 13.6 0 0 1 -18.3 6.1z" fill="url(#T)"/><path d="m328.8 396.3 115.2 58.3a6.4 6.4 0 0 0 6-.2l11.3-6.7a6.4 6.4 0 0 0 3-4.6c-10.5-11.4-110.3-55-114-63.9-1.4-3.2-1.6-8.1 2.4-15.6l-5.9-2.9a67.2 67.2 0 1 0 -18 35.6zm-69.1-72.6a13.7 13.7 0 1 1 -18.3 6.1 13.6 13.6 0 0 1 18.3-6.1z" fill="url(#U)"/><path d="m256.1 397.8a54.1 54.1 0 1 0 -23.9-72.7 54 54 0 0 0 23.9 72.7zm-8.7-49.7a13.7 13.7 0 1 1 18.3-6.1 13.6 13.6 0 0 1 -18.3 6.1z" fill="url(#V)"/><path d="m164.7 435.1s63.4 21.2 98.8-5.8a10.2 10.2 0 0 1 7.7-2l13.5 2.2a10.8 10.8 0 0 0 12.4-8.3 23.2 23.2 0 0 0 .3-9.8l-25.6-1.5.8-3.3s-11.3 2.7-11.6 11.6c0 0-26.4 17.3-74.8-9.6 0 0-18.8 14.7-21.5 26.5z" fill="url(#W)"/><g fill="#91b3fa"><g opacity=".3"><path d="m654 117.5a2.8 2.8 0 0 1 -2.6-2.8c.1-2.8.1-5.8 0-8.6a2.7 2.7 0 0 1 2.5-2.8h.1a2.7 2.7 0 0 1 2.8 2.5c.1 3.1.1 6.1 0 9.1a2.8 2.8 0 0 1 -2.5 2.6zm-4.2-25.4a86.4 86.4 0 0 0 -1.9-8.5 2.6 2.6 0 0 1 1.9-3.2 2.7 2.7 0 0 1 3.3 1.8c.8 3 1.4 5.9 2 8.9a2.6 2.6 0 0 1 -2.2 3.1h-.3a2.8 2.8 0 0 1 -2.8-2.1zm-6.5-21.7c-1.2-2.7-2.4-5.3-3.8-7.8a2.7 2.7 0 0 1 1.1-3.6 2.6 2.6 0 0 1 3.6 1.1 77.7 77.7 0 0 1 4 8.2 2.7 2.7 0 0 1 -1.4 3.5l-.9.2a2.6 2.6 0 0 1 -2.6-1.6zm-11.3-19.7c-1.7-2.4-3.5-4.6-5.4-6.8a2.7 2.7 0 0 1 4.1-3.5c2 2.3 3.9 4.7 5.7 7.1a2.7 2.7 0 0 1 -.6 3.7 2.5 2.5 0 0 1 -1.4.6 3.2 3.2 0 0 1 -2.4-1.1zm-15.3-16.7c-2.2-1.9-4.5-3.7-6.8-5.4a2.7 2.7 0 1 1 3.2-4.4c2.4 1.8 4.8 3.7 7.1 5.7a2.8 2.8 0 0 1 .3 3.8 2.5 2.5 0 0 1 -1.9.9 2.6 2.6 0 0 1 -1.9-.6zm-18.7-12.9a70.3 70.3 0 0 0 -7.8-3.8 2.8 2.8 0 0 1 -1.4-3.5 2.7 2.7 0 0 1 3.6-1.4c2.7 1.2 5.5 2.5 8.2 4a2.7 2.7 0 0 1 -1.1 5 4 4 0 0 1 -1.5-.3zm-99.2-1.3a2.7 2.7 0 0 1 1.1-3.6c2.7-1.4 5.4-2.7 8.2-3.9a2.6 2.6 0 0 1 3.5 1.4 2.6 2.6 0 0 1 -1.4 3.5c-2.6 1.1-5.3 2.4-7.8 3.7a2 2 0 0 1 -1.1.3 2.5 2.5 0 0 1 -2.5-1.4zm78.2-7.2c-2.8-.7-5.6-1.4-8.4-1.9a2.7 2.7 0 0 1 -2.2-3.1 2.8 2.8 0 0 1 3.1-2.2c3 .6 6 1.3 8.9 2.1a2.7 2.7 0 0 1 1.9 3.3 2.6 2.6 0 0 1 -2.4 1.9zm-56.8-1.9a2.7 2.7 0 0 1 1.9-3.3c2.9-.8 5.9-1.4 8.9-2a2.7 2.7 0 1 1 .9 5.3 84.5 84.5 0 0 0 -8.4 1.9h-.5a2.9 2.9 0 0 1 -2.8-1.9zm34.4-1.6h-8.7a2.7 2.7 0 0 1 -2.8-2.5 2.7 2.7 0 0 1 2.5-2.8h.1a69.1 69.1 0 0 1 9.1 0 2.7 2.7 0 0 1 2.6 2.8 2.8 2.8 0 0 1 -2.5 2.5z"/><path d="m485.6 31.5a2.5 2.5 0 0 0 1.5-.5l3.3-2.6a2.7 2.7 0 1 0 -3.1-4.3l-3.5 2.7a2.5 2.5 0 0 0 -.4 3.7 2.4 2.4 0 0 0 2.2 1z"/></g><g opacity=".3"><path d="m446.7 103.1a2.8 2.8 0 0 0 2.5-2.4c.1-1.4.2-2.8.4-4.2a2.7 2.7 0 0 0 -2.2-3 2.7 2.7 0 0 0 -3.1 2.3c-.2 1.5-.3 2.9-.5 4.4a2.8 2.8 0 0 0 2.4 2.9z"/><path d="m551.5 217.2a2.7 2.7 0 0 1 -2.7-2.7 2.7 2.7 0 0 1 2.6-2.7c2.8 0 5.7-.2 8.5-.4a2.7 2.7 0 0 1 3 2.4 2.8 2.8 0 0 1 -2.4 2.9l-3.7.3zm20.1-4.9a2.7 2.7 0 0 1 2-3.2c2.7-.7 5.5-1.4 8.2-2.3a2.7 2.7 0 0 1 3.4 1.7 2.8 2.8 0 0 1 -1.7 3.4q-4.3 1.3-8.7 2.4h-.4a2.8 2.8 0 0 1 -2.8-2zm-34.6 4.1c-3-.4-6-.9-8.9-1.5a2.7 2.7 0 0 1 -2.1-3.1 2.8 2.8 0 0 1 3.2-2.1c2.8.6 5.6 1 8.4 1.4a2.6 2.6 0 0 1 2.3 3 2.6 2.6 0 0 1 -2.4 2.3zm56.4-11.2a2.6 2.6 0 0 1 1.2-3.6c2.6-1.3 5.1-2.6 7.5-4.1a2.8 2.8 0 0 1 3.7.9 2.7 2.7 0 0 1 -1 3.7c-2.5 1.5-5.2 3-7.8 4.3l-1 .2a2.6 2.6 0 0 1 -2.6-1.4zm-79.3 5.8c-2.8-1-5.6-2.2-8.3-3.4a2.8 2.8 0 0 1 -1.3-3.6 2.7 2.7 0 0 1 3.5-1.3c2.6 1.2 5.3 2.3 7.9 3.2a2.7 2.7 0 0 1 1.6 3.4 2.6 2.6 0 0 1 -2.3 1.8zm-21.1-10.4c-2.5-1.6-5-3.3-7.4-5.1a2.7 2.7 0 0 1 -.5-3.7 2.7 2.7 0 0 1 3.8-.5c2.2 1.7 4.6 3.3 7 4.8a2.7 2.7 0 0 1 .8 3.7 2.5 2.5 0 0 1 -2.1 1.2 2.4 2.4 0 0 1 -1.6-.4zm-18.3-14.6c-2.1-2.1-4.2-4.4-6.1-6.6a2.7 2.7 0 0 1 4.1-3.5q2.7 3.3 5.7 6.3a2.6 2.6 0 0 1 -1.7 4.5 2.5 2.5 0 0 1 -2-.7zm-14.8-18.4a84.6 84.6 0 0 1 -4.4-7.7 2.7 2.7 0 0 1 4.7-2.5 78.9 78.9 0 0 0 4.3 7.4 2.7 2.7 0 0 1 -.9 3.7l-1.2.4a2.9 2.9 0 0 1 -2.5-1.3zm-10.3-21.1c-1-2.8-1.9-5.7-2.6-8.5a2.6 2.6 0 1 1 5.1-1.4c.7 2.7 1.6 5.5 2.5 8.1a2.6 2.6 0 0 1 -1.6 3.4l-.7.2a2.6 2.6 0 0 1 -2.7-1.8zm-5.4-22.8q-.4-3.3-.6-6.6c-.1-.8-.1-1.6-.2-2.4a2.8 2.8 0 0 1 2.6-2.8 2.8 2.8 0 0 1 2.8 2.6 17.7 17.7 0 0 0 .1 2.3c.1 2 .3 4.1.6 6.2a2.7 2.7 0 0 1 -2.3 3h-.2a2.6 2.6 0 0 1 -2.8-2.3z"/><path d="m615.4 194.3a3 3 0 0 0 1.5-.5l3.3-2.9a2.7 2.7 0 0 0 .3-3.7 2.7 2.7 0 0 0 -3.8-.3l-3.2 2.7a2.7 2.7 0 0 0 -.4 3.7 2.6 2.6 0 0 0 2.3 1z"/></g><path d="m620.4 148.8a1.4 1.4 0 0 0 0-1.5l-8.8-12.3a67.8 67.8 0 0 0 4.9-20.9l13.3-7.3a1.2 1.2 0 0 0 .7-1.3l-3-18a1.3 1.3 0 0 0 -1-1l-15-2.5a64.3 64.3 0 0 0 -11.4-18.2l4.4-14.6a1.5 1.5 0 0 0 -.5-1.4l-14.8-10.6a1.4 1.4 0 0 0 -1.5 0l-12.4 8.8a66.5 66.5 0 0 0 -20.9-4.9l-7.2-13.3a1.5 1.5 0 0 0 -1.3-.7l-18 3a1.2 1.2 0 0 0 -1 1l-2.6 15a67.3 67.3 0 0 0 -18.2 11.4l-14.6-4.4a1.3 1.3 0 0 0 -1.3.5l-10.6 14.8a1.2 1.2 0 0 0 0 1.5l8.8 12.4a67.2 67.2 0 0 0 -4.9 20.9l-13.4 7.2a1.4 1.4 0 0 0 -.6 1.3l3 18a1.2 1.2 0 0 0 1 1l15 2.6a69.5 69.5 0 0 0 11.3 18.2l-4.3 14.6a1.1 1.1 0 0 0 .5 1.3l14.8 10.6a1.1 1.1 0 0 0 1.5 0l12.4-8.8a66.6 66.6 0 0 0 20.8 4.9l7.3 13.4a1.3 1.3 0 0 0 1.3.6l18-3a1.3 1.3 0 0 0 1-1l2.5-15a66.4 66.4 0 0 0 18.2-11.3l14.6 4.3a1.1 1.1 0 0 0 1.4-.5z"/></g><path d="m548.5 127.9a18.4 18.4 0 0 1 -10.4-32.3 18.3 18.3 0 1 1 13.1 32.3zm-7.6-29a13.7 13.7 0 0 0 -4.9 9.6 13.9 13.9 0 0 0 12.8 15.1 14 14 0 1 0 2.3-28h-2a13.8 13.8 0 0 0 -8.2 3.3z" fill="#bdd0fb"/><path d="m552.5 154.4 4.6-.6 1.4-.2a56 56 0 0 0 7-2h.3l.5-.2a1.1 1.1 0 0 0 .7-1.1.4.4 0 0 0 -.1-.3 1 1 0 0 0 -1.4-.6 44 44 0 0 1 -8.8 2.4 43 43 0 0 1 -49.4-35.3c-.2-1.5-.4-2.9-.5-4.4a42.9 42.9 0 0 1 85.2-9.7 32.9 32.9 0 0 1 .5 4.4 41.4 41.4 0 0 1 -2.9 18.4v.5a1.1 1.1 0 0 0 .6.9 1.1 1.1 0 0 0 1.4-.6 44.5 44.5 0 0 0 3.1-19.4c-.1-1.5-.3-3-.5-4.5a45.2 45.2 0 0 0 -81.2-19 44.6 44.6 0 0 0 -8.3 29c.1 1.6.3 3.1.5 4.6a45.3 45.3 0 0 0 47.3 37.7z" fill="#bdd0fb"/><g fill="#91b3fa" opacity=".3"><path d="m749.8 182a1.6 1.6 0 0 0 1.5-1.3c.3-1.3.5-2.7.8-4.1a1.7 1.7 0 0 0 -1.4-1.9 1.6 1.6 0 0 0 -1.9 1.3c-.2 1.4-.5 2.7-.8 4a1.7 1.7 0 0 0 1.3 2z"/><path d="m751.2 169.4a1.7 1.7 0 0 1 -1.6-1.7q.1-3.4 0-6.9a7.6 7.6 0 0 1 -.1-1.5 1.7 1.7 0 0 1 1.5-1.8 1.6 1.6 0 0 1 1.7 1.5c.1.6.1 1.1.2 1.6q.1 3.6 0 7.2a1.6 1.6 0 0 1 -1.5 1.6zm-3-18.4a60.9 60.9 0 0 0 -2.2-8.1 1.5 1.5 0 0 1 1.1-2 1.5 1.5 0 0 1 2 1 59.3 59.3 0 0 1 2.4 8.5 1.6 1.6 0 0 1 -1.3 1.9h-.2a1.7 1.7 0 0 1 -1.8-1.3zm-5.4-15.8a65.1 65.1 0 0 0 -4.1-7.3 1.6 1.6 0 0 1 .5-2.3 1.7 1.7 0 0 1 2.3.5 82 82 0 0 1 4.3 7.6 1.7 1.7 0 0 1 -.8 2.3h-.6a1.6 1.6 0 0 1 -1.6-.8zm-9.1-14a83.6 83.6 0 0 0 -5.8-6.1 1.6 1.6 0 1 1 2.2-2.4 61.5 61.5 0 0 1 6.1 6.4 1.6 1.6 0 0 1 -.2 2.3l-1 .4a1.6 1.6 0 0 1 -1.3-.6zm-12.3-11.4a75.6 75.6 0 0 0 -7.1-4.4 1.7 1.7 0 0 1 -.6-2.3 1.5 1.5 0 0 1 2.2-.6 61.3 61.3 0 0 1 7.4 4.6 1.6 1.6 0 0 1 .4 2.3 1.4 1.4 0 0 1 -1.2.7 1.1 1.1 0 0 1 -1.1-.3zm-14.7-8a73 73 0 0 0 -7.9-2.6 1.6 1.6 0 0 1 .8-3.2 61.8 61.8 0 0 1 8.3 2.7 1.7 1.7 0 0 1 1 2.2 1.6 1.6 0 0 1 -1.5 1zm-16.2-4.2a56.9 56.9 0 0 0 -8.3-.6 1.7 1.7 0 0 1 -1.7-1.6 1.7 1.7 0 0 1 1.7-1.7 65.1 65.1 0 0 1 8.8.6 1.7 1.7 0 0 1 -.1 3.3zm-26.9.2a1.6 1.6 0 0 1 1.2-2 62 62 0 0 1 7.5-1.4l1.1-.2a1.8 1.8 0 0 1 1.9 1.5 1.7 1.7 0 0 1 -1.5 1.8h-1.1a55.7 55.7 0 0 0 -7.1 1.4h-.3a1.6 1.6 0 0 1 -1.7-1.1z"/></g><g fill="#91b3fa" opacity=".3"><path d="m685.2 236.2a61.7 61.7 0 0 1 -8.6-.1 1.5 1.5 0 0 1 -1.5-1.7 1.7 1.7 0 0 1 1.7-1.6 57.3 57.3 0 0 0 8.3.1 1.7 1.7 0 0 1 1.7 1.6 1.7 1.7 0 0 1 -1.6 1.7zm6.7-2.3a1.8 1.8 0 0 1 1.4-1.9 54.7 54.7 0 0 0 8-1.9 1.7 1.7 0 0 1 .9 3.2 73.5 73.5 0 0 1 -8.4 2h-.2a1.7 1.7 0 0 1 -1.7-1.4zm-23.9 1.1a65 65 0 0 1 -8.4-2.2 1.6 1.6 0 0 1 -1-2 1.6 1.6 0 0 1 2.1-1.1c2.6.8 5.3 1.5 7.9 2.1a1.7 1.7 0 0 1 1.4 1.9 1.6 1.6 0 0 1 -1.6 1.3zm40.2-5.5a1.6 1.6 0 0 1 .8-2.2 73.9 73.9 0 0 0 7.4-3.8 1.6 1.6 0 0 1 2.2.6 1.7 1.7 0 0 1 -.6 2.3 68 68 0 0 1 -7.6 3.9l-.6.2a1.8 1.8 0 0 1 -1.6-1zm-56.6.2a80.9 80.9 0 0 1 -7.6-4.2 1.5 1.5 0 0 1 -.5-2.2 1.8 1.8 0 0 1 2.3-.6 63 63 0 0 0 7.2 4 1.6 1.6 0 0 1 .8 2.2 1.7 1.7 0 0 1 -1.4.9zm-14.6-9.2a58.8 58.8 0 0 1 -6.4-5.8 1.6 1.6 0 0 1 2.3-2.3c2 2 4 3.8 6.1 5.6a1.5 1.5 0 0 1 .3 2.3 1.4 1.4 0 0 1 -1.2.6 1.5 1.5 0 0 1 -1.1-.4zm-12.1-12.3q-2.5-3.4-4.8-7.2a1.7 1.7 0 0 1 2.9-1.7 63.6 63.6 0 0 0 4.6 6.9 1.6 1.6 0 0 1 -.4 2.3 1.1 1.1 0 0 1 -.8.3 2 2 0 0 1 -1.5-.6z"/><path d="m724.4 221.8a1.6 1.6 0 0 0 .9-.3l3.2-2.7a1.6 1.6 0 0 0 -2.1-2.5l-3.2 2.6a1.6 1.6 0 0 0 -.2 2.3 1.7 1.7 0 0 0 1.4.6z"/></g><path d="m728.7 190.7a.8.8 0 0 0 0-1l-5.8-8.3a44 44 0 0 0 3.2-14l8.9-4.8a.9.9 0 0 0 .5-.9l-2-12a1 1 0 0 0 -.7-.7l-10-1.7a46.4 46.4 0 0 0 -7.6-12.2l2.9-9.7a.9.9 0 0 0 -.3-.9l-10-7.1a.6.6 0 0 0 -.9-.1l-8.3 5.9a44 44 0 0 0 -14-3.2l-4.9-9c-.1-.3-.5-.4-.8-.4l-12.1 2a1.2 1.2 0 0 0 -.7.7l-1.6 10a43.3 43.3 0 0 0 -12.2 7.6l-9.8-2.9a.8.8 0 0 0 -.9.3l-7.1 10a.7.7 0 0 0 0 .9l5.9 8.3a47 47 0 0 0 -3.3 14l-8.9 4.8a.9.9 0 0 0 -.4.9l2 12.1a.6.6 0 0 0 .6.6l10.1 1.7a39.2 39.2 0 0 0 7.6 12.2l-2.9 9.8a.8.8 0 0 0 .3.9l9.9 7.1a.9.9 0 0 0 1 0l8.3-5.9a47 47 0 0 0 14 3.3l4.8 8.9a.8.8 0 0 0 .9.4l12-2c.4 0 .6-.3.7-.7l1.7-10a43.9 43.9 0 0 0 12.2-7.6l9.7 2.9a.8.8 0 0 0 .9-.3z" fill="#91b3fa"/><path d="m680.6 176.9a12.3 12.3 0 0 1 -8.5-4.4 11.9 11.9 0 0 1 -2.9-9.1 12.5 12.5 0 0 1 24.9 2.1 12.9 12.9 0 0 1 -4.4 8.5 11.8 11.8 0 0 1 -7.3 2.9zm-8.1-13.2a9.1 9.1 0 0 0 8.4 9.9 9.2 9.2 0 0 0 6.7-2.1 9.4 9.4 0 0 0 3.2-6.3 9.3 9.3 0 0 0 -8.4-9.9h-1.4a9.1 9.1 0 0 0 -8.5 8.4z" fill="#bdd0fb"/><path d="m683.4 195.3a16.3 16.3 0 0 0 3.1-.3 30.5 30.5 0 0 0 6.1-1.7h.3a1.5 1.5 0 0 0 1-1.6.7.7 0 0 0 -.1-.5 1.6 1.6 0 0 0 -2.1-1 24.4 24.4 0 0 1 -5.7 1.6h-.4a28.1 28.1 0 0 1 -13.5-1.3 27.5 27.5 0 0 1 -6.6-3.4h-.3a27.5 27.5 0 0 1 -11.2-18 14.3 14.3 0 0 1 -.3-2.9 27.6 27.6 0 0 1 23.2-29.1 27.7 27.7 0 0 1 31.9 22.9 23.6 23.6 0 0 1 .4 2.8 28.6 28.6 0 0 1 -1.9 11.9 1.7 1.7 0 0 0 -.1.7 1.5 1.5 0 0 0 1 1.4 1.7 1.7 0 0 0 2.2-.9 33.5 33.5 0 0 0 2.1-13.3c-.1-1.1-.2-2.1-.4-3.2a31.2 31.2 0 0 0 -35.8-25.6 31.4 31.4 0 0 0 -20.2 12.6 30.6 30.6 0 0 0 -5.7 20c0 1.1.2 2.1.3 3.2a31.2 31.2 0 0 0 32.7 25.7z" fill="#bdd0fb"/></svg>