<svg viewBox="0 0 96 92.7" xmlns="http://www.w3.org/2000/svg"><rect fill="#a855f7" height="92.7" rx="16.07" width="96"/><g fill="#fff"><path d="m69.4 55.5v12.5h-43.75v-43.61h43.74c0 3.6.07 7.18 0 10.75 0 1.32.25 1.88 1.65 1.79s3.08 0 5 0v-5.93c0-2.22 0-4.44 0-6.65a6.62 6.62 0 0 0 -6.44-6.62q-21.12 0-42.25 0a13.11 13.11 0 0 0 -3.2.27c-3.29.81-5 3.22-5.07 7.14-.07 5 0 10.07 0 15.1 0 9.11.07 18.22 0 27.33 0 4.34 2.8 7.11 7.18 7.1h40.81c.9 0 1.8 0 2.69-.08 3.35-.24 5.88-2.4 6.09-5.74.27-4.12.16-8.27.11-12.4 0-.33-.7-.9-1.11-.93-1.75-.08-3.43-.02-5.45-.02z"/><path d="m49.22 61.7 4.31-4-7.83-7.61.3-.56h29.93c0-2.08.07-3.91-.06-5.74 0-.32-.88-.84-1.36-.84-8.45 0-16.9 0-25.34 0a8.94 8.94 0 0 1 -3.2-.42l7.77-7.13-4.55-4.81-15.51 15.93z"/></g></svg>